# xmcd
#
# Track frame offsets:
#	150
#	17040
#	34520
#	47777
#	61952
#	80240
#	95842
#	113004
#	129985
#	149176
#	168105
#	181499
#	195162
#	211121
#	229213
#	254514
#
# Disc length: 3402 seconds
#
# Revision: 1
# Processed by: cddbd v1.5.1PL2 Copyright (c) Steve Scherf et al.
# Submitted via: audiograbber 1.83.01
#
DISCID=df0d4810
DTITLE=Country Hits Vol 186 - SC8965
DYEAR=2006
DGENRE=Country
TTITLE0=McGraw, Tim - When The Stars Go Blue
TTITLE1=Nelson, Willie - You Don't Know Me
TTITLE2=Haggard, Merle - America First
TTITLE3=Owen, Jake - Yee Haw
TTITLE4=Church, Eric - How 'Bout You
TTITLE5=Messina, Jo Dee - Not Going Down
TTITLE6=Ingram, Jack - Wherever You Are
TTITLE7=Nelson, Willie - Cowboys Are Frequently Secretly (Fond Of Each Other)
TTITLE8=Little Big Town - Bring It On Home (Radio Version)
TTITLE9=Dixie Chicks - Not Ready To Make Nice
TTITLE10=Currington, Billy - Why Why Why
TTITLE11=Monroe, Ashley - Satisfied
TTITLE12=Grascals, The and Parton, Dolly - Viva Las Vegas
TTITLE13=Yearwood, Trisha - Trying To Love You
TTITLE14=Sugarland - Down In Mississippi (Up To No Good)
TTITLE15=data - Data Track
EXTD=
EXTT0=
EXTT1=
EXTT2=
EXTT3=
EXTT4=
EXTT5=
EXTT6=
EXTT7=
EXTT8=
EXTT9=
EXTT10=
EXTT11=
EXTT12=
EXTT13=
EXTT14=
EXTT15=
PLAYORDER=
